<svg width="180" height="33" viewBox="0 0 180 33" fill="none" xmlns="http://www.w3.org/2000/svg">
<g clip-path="url(#clip0)">
<path d="M49.1976 7.64589C52.845 7.64589 54.6687 9.62582 54.6687 9.62582L53.8721 10.7422C53.8721 10.7422 52.0904 9.03605 49.2395 9.03605C45.6551 9.03605 43.1187 11.8164 43.1187 15.4392C43.1187 19.1042 45.676 22.0741 49.3024 22.0741C52.3838 22.0741 54.2494 20.031 54.2494 20.031L55.1089 21.1052C55.1089 21.1052 53.0337 23.4853 49.2815 23.4853C44.7747 23.4853 41.5675 19.9467 41.5675 15.4814C41.5675 11.016 44.8585 7.64589 49.1976 7.64589Z" fill="#616161"/>
<path d="M64.4998 7.64589C68.818 7.64589 72.2557 11.0581 72.2557 15.4603C72.2557 19.9467 68.818 23.4643 64.4998 23.4643C60.1817 23.4643 56.7439 19.9467 56.7439 15.4603C56.7439 11.0581 60.1817 7.64589 64.4998 7.64589ZM64.4998 22.0741C67.9166 22.0741 70.7046 19.2095 70.7046 15.4603C70.7046 11.7953 67.9376 9.03605 64.4998 9.03605C61.0621 9.03605 58.2951 11.7953 58.2951 15.4603C58.2951 19.1885 61.0621 22.0741 64.4998 22.0741Z" fill="#616161"/>
<path d="M75.1904 7.89865H76.6368L84.4136 18.9146C84.9377 19.6729 85.6714 20.9788 85.6714 20.9788H85.7133C85.7133 20.9788 85.5875 19.715 85.5875 18.9146V7.89865H87.0758V23.1904H85.6294L77.8526 12.1745C77.3285 11.4162 76.5949 10.1103 76.5949 10.1103H76.5529C76.5529 10.1103 76.6787 11.3741 76.6787 12.1745V23.1904H75.1904V7.89865Z" fill="#616161"/>
<path d="M94.4963 9.24669H89.0253V7.89865H101.456V9.24669H96.0056V23.1904H94.5173V9.24669H94.4963Z" fill="#616161"/>
<path d="M115.312 7.89865H120.51C122.921 7.89865 124.619 9.352 124.619 11.7532C124.619 13.3329 123.864 14.4914 122.69 15.0812V15.1233C124.241 15.5656 125.247 17.0611 125.247 18.9146C125.247 21.6318 123.235 23.2115 120.678 23.2115H115.312V7.89865ZM120.51 14.5335C122.04 14.5335 123.088 13.4382 123.088 11.8585C123.088 10.2998 122.124 9.24669 120.489 9.24669H116.8V14.5335H120.51ZM120.699 21.8424C122.543 21.8424 123.696 20.6839 123.696 18.8514C123.696 17.019 122.46 15.8184 120.678 15.8184H116.8V21.8213H120.699V21.8424Z" fill="#616161"/>
<path d="M128.434 7.89865H129.922V23.1904H128.434V7.89865Z" fill="#616161"/>
<path d="M133.926 7.89865H135.414V21.8424H142.478V23.1904H133.926V7.89865V7.89865Z" fill="#616161"/>
<path d="M144.7 7.89865H146.188V23.1904H144.7V7.89865Z" fill="#616161"/>
<path d="M149.983 7.89865H151.492V17.8404C151.492 20.4733 153.19 22.053 155.81 22.053C158.43 22.053 160.149 20.4733 160.149 17.7772V7.87758H161.637V17.8404C161.637 21.2316 159.269 23.4432 155.831 23.4432C152.372 23.4432 149.983 21.2526 149.983 17.8404V7.89865V7.89865Z" fill="#616161"/>
<path d="M166.165 7.89865H167.716L171.699 16.8926C172.055 17.6719 172.433 18.7672 172.433 18.7672H172.475C172.475 18.7672 172.894 17.6719 173.229 16.8926L177.212 7.89865H178.742L179.958 23.1904H178.47L177.631 12.4904C177.568 11.6689 177.589 10.363 177.589 10.363H177.547C177.547 10.363 177.086 11.7111 176.751 12.4904L173.187 20.3469H171.783L168.219 12.4904C167.863 11.7321 167.402 10.3209 167.402 10.3209H167.36C167.36 10.3209 167.381 11.6689 167.318 12.4904L166.48 23.1904H164.991L166.165 7.89865Z" fill="#616161"/>
<path d="M107.66 7.89865H106.067L100.47 23.1904H102.043L103.175 20.031L103.217 19.9257L103.782 18.3249L104.244 17.019H104.202L106.235 11.4794C106.487 10.7632 106.822 9.49944 106.822 9.49944H106.864C106.864 9.49944 107.178 10.7632 107.451 11.4794L108.792 15.2497L108.813 15.3128L109.421 17.04L110.49 20.031L111.643 23.2326H113.215L107.66 7.89865Z" fill="#616161"/>
<path d="M2.18004 25.5495C0.880401 24.7912 0 23.38 0 21.7581V16.3239V14.8284L1.29964 15.5867L15.0507 23.5696L28.6969 15.6288C28.7807 15.6077 28.8646 15.6077 28.9484 15.6077C29.5353 15.6077 30.0175 16.0922 30.0175 16.6819V21.9056C29.9755 23.38 29.2209 24.6649 28.089 25.4442L17.2517 31.6789C16.6018 32.0791 15.8262 32.2897 15.0297 32.2897C14.2331 32.2897 13.4995 32.0791 12.8497 31.6999L2.18004 25.5495Z" fill="#DD2C60"/>
<path d="M2.24293 16.1764L8.15419 12.7642L15.0087 8.7833L21.6327 12.6378C21.9052 12.7853 22.1987 12.8695 22.5341 12.8695C22.7437 12.8695 22.9533 12.8274 23.142 12.7642L29.2628 9.62582C29.6821 9.47838 29.9965 9.07818 29.9965 8.6148C29.9965 8.19353 29.703 7.83546 29.3467 7.66696L17.1678 0.568703C16.539 0.210631 15.8053 0 15.0297 0C14.2331 0 13.4995 0.210631 12.8706 0.568703L2.22196 6.71912C0.901363 7.45633 0 8.88862 0 10.5315V20.0099C0 18.3459 0.901362 16.9136 2.24293 16.1764Z" fill="#009B90"/>
</g>
<defs>
<clipPath id="clip0">
<rect width="180" height="32.2476" fill="white"/>
</clipPath>
</defs>
</svg>